# xmcd
#
# Track frame offsets:
#	150
#	10858
#	24553
#	39296
#	53829
#	71197
#	84273
#
# Disc length: 1331 seconds
#
# Revision: 1
# Processed by: cddbd v1.4PL0 Copyright (c) Steve Scherf et al.
# Submitted via: CDmax 1.8
#
DISCID=4d053107
DTITLE=Chris Gaffney and The Cold Hard Facts - Road to Indio
DYEAR=1999
DGENRE=Country
TTITLE0=Road to Indio
TTITLE1=A Bridge Too Far
TTITLE2=White Girl
TTITLE3=Alcoholidays
TTITLE4=Still a Few More Honky Tonks
TTITLE5=Don't Let Love Tear Apart
TTITLE6=Old Man
EXTD=
EXTT0=
EXTT1=
EXTT2=
EXTT3=
EXTT4=
EXTT5=(what lust has brought together)
EXTT6=
PLAYORDER=
